<svg width="22" height="17" viewBox="0 0 22 17" fill="none" xmlns="http://www.w3.org/2000/svg">
<path d="M13.5 12.84C13.501 11.3776 14.0361 9.96589 15.0047 8.87022C15.9733 7.77456 17.3087 7.07037 18.76 6.89001L21.5 6.55001V3.43001C21.5042 2.99807 21.4152 2.57031 21.2389 2.17597C21.0626 1.78163 20.8032 1.43001 20.4785 1.14516C20.1537 0.860315 19.7713 0.64895 19.3574 0.525522C18.9434 0.402094 18.5077 0.369513 18.08 0.430008L15.35 0.820008C14.7862 0.900019 14.2138 0.900019 13.65 0.820008L8.34999 0.0600083C7.78615 -0.0200028 7.21384 -0.0200028 6.64999 0.0600083L3.07999 0.570008C2.35916 0.671892 1.69997 1.03241 1.22529 1.58437C0.750611 2.13632 0.492828 2.84205 0.499993 3.57001V13.43C0.495736 13.8619 0.584806 14.2897 0.761113 14.684C0.93742 15.0784 1.19681 15.43 1.52153 15.7149C1.84626 15.9997 2.22867 16.2111 2.64262 16.3345C3.05657 16.4579 3.49229 16.4905 3.91999 16.43L6.64999 16.04C7.21384 15.96 7.78615 15.96 8.34999 16.04L13.5 16.78V12.84ZM3.23999 1.43001C3.37844 1.43001 3.51378 1.47106 3.62889 1.54798C3.74401 1.6249 3.83373 1.73422 3.88671 1.86213C3.93969 1.99004 3.95355 2.13078 3.92654 2.26657C3.89953 2.40236 3.83286 2.52709 3.73497 2.62498C3.63707 2.72288 3.51234 2.78955 3.37656 2.81656C3.24077 2.84357 3.10002 2.8297 2.97211 2.77672C2.84421 2.72374 2.73488 2.63402 2.65796 2.51891C2.58105 2.40379 2.53999 2.26846 2.53999 2.13001C2.53999 2.03808 2.5581 1.94706 2.59328 1.86213C2.62846 1.7772 2.68002 1.70003 2.74502 1.63503C2.81002 1.57003 2.88719 1.51847 2.97211 1.48329C3.05704 1.44811 3.14807 1.43001 3.23999 1.43001ZM2.59999 4.20001C2.5796 4.02179 2.6284 3.84254 2.73633 3.69926C2.84425 3.55598 3.00307 3.4596 3.17999 3.43001C3.27074 3.41436 3.3637 3.41703 3.4534 3.43787C3.5431 3.4587 3.62772 3.49728 3.70228 3.55134C3.77684 3.60539 3.83982 3.67382 3.88751 3.75259C3.93521 3.83137 3.96665 3.91889 3.97999 4.01001C3.99572 4.10003 3.99342 4.19228 3.9732 4.2814C3.95299 4.37053 3.91527 4.45475 3.86224 4.52917C3.80921 4.6036 3.74193 4.66675 3.66429 4.71496C3.58666 4.76317 3.50022 4.79548 3.40999 4.81001H3.28999C3.12065 4.80899 2.95742 4.74663 2.83055 4.63446C2.70367 4.5223 2.62176 4.36795 2.59999 4.20001ZM4.52999 6.43001C4.40359 6.52662 4.24909 6.57929 4.08999 6.58001C3.98385 6.57965 3.87917 6.55516 3.78388 6.50838C3.6886 6.4616 3.6052 6.39377 3.53999 6.31001C3.48194 6.23658 3.43897 6.1524 3.41357 6.06231C3.38817 5.97221 3.38083 5.87799 3.39199 5.78505C3.40314 5.69211 3.43256 5.60229 3.47855 5.52077C3.52455 5.43924 3.58621 5.36761 3.65999 5.31001C3.73228 5.24929 3.81626 5.20404 3.90674 5.17708C3.99722 5.15012 4.09227 5.14201 4.186 5.15326C4.27974 5.16451 4.37017 5.19488 4.4517 5.24248C4.53323 5.29008 4.60412 5.35391 4.65999 5.43001C4.71882 5.50351 4.76222 5.58812 4.78759 5.67878C4.81295 5.76945 4.81977 5.86429 4.80764 5.95765C4.7955 6.05101 4.76466 6.14096 4.71695 6.22212C4.66925 6.30329 4.60566 6.37399 4.52999 6.43001ZM6.30999 7.43001C6.25538 7.55726 6.16476 7.66576 6.04927 7.74217C5.93378 7.81857 5.79847 7.85953 5.65999 7.86001C5.56677 7.8593 5.47475 7.83885 5.38999 7.80001C5.29709 7.76658 5.2123 7.71388 5.1412 7.64537C5.07011 7.57685 5.01431 7.49407 4.97748 7.40246C4.94065 7.31085 4.92361 7.21249 4.92749 7.11383C4.93137 7.01517 4.95608 6.91844 4.99999 6.83001C5.03407 6.74097 5.08573 6.65971 5.15189 6.59106C5.21805 6.52242 5.29736 6.46781 5.38509 6.43048C5.47281 6.39315 5.56715 6.37387 5.66249 6.37379C5.75783 6.37371 5.85221 6.39283 5.93999 6.43001C6.03523 6.46484 6.12176 6.51995 6.1936 6.59152C6.26544 6.66309 6.32087 6.74941 6.35606 6.84451C6.39125 6.93962 6.40535 7.04123 6.3974 7.14233C6.38945 7.24342 6.35962 7.34158 6.30999 7.43001ZM7.61999 8.18001C7.48155 8.18001 7.34621 8.13895 7.23109 8.06204C7.11598 7.98512 7.02626 7.8758 6.97328 7.74789C6.9203 7.61998 6.90643 7.47923 6.93344 7.34345C6.96045 7.20766 7.02712 7.08293 7.12502 6.98503C7.22291 6.88714 7.34764 6.82047 7.48343 6.79346C7.61922 6.76645 7.75996 6.78031 7.88787 6.83329C8.01578 6.88627 8.1251 6.97599 8.20202 7.09111C8.27894 7.20622 8.31999 7.34156 8.31999 7.48001C8.30733 7.65686 8.22802 7.82232 8.0981 7.94297C7.96817 8.06361 7.7973 8.13046 7.61999 8.13001V8.18001ZM12.91 9.39001C12.777 9.52191 12.5973 9.59592 12.41 9.59592C12.2227 9.59592 12.043 9.52191 11.91 9.39001L11 8.43001L10.08 9.35001C9.94701 9.48191 9.7673 9.55592 9.57999 9.55592C9.39269 9.55592 9.21297 9.48191 9.07999 9.35001C8.94809 9.21703 8.87408 9.03731 8.87408 8.85001C8.87408 8.6627 8.94809 8.48299 9.07999 8.35001L9.99999 7.43001L9.07999 6.51001C8.94738 6.3774 8.87289 6.19754 8.87289 6.01001C8.87289 5.82247 8.94738 5.64262 9.07999 5.51001C9.2126 5.3774 9.39246 5.3029 9.57999 5.3029C9.76753 5.3029 9.94738 5.3774 10.08 5.51001L11 6.43001L11.92 5.51001C11.9857 5.44435 12.0636 5.39226 12.1494 5.35673C12.2352 5.32119 12.3271 5.3029 12.42 5.3029C12.5129 5.3029 12.6048 5.32119 12.6906 5.35673C12.7764 5.39226 12.8543 5.44435 12.92 5.51001C12.9857 5.57567 13.0377 5.65362 13.0733 5.73941C13.1088 5.8252 13.1271 5.91715 13.1271 6.01001C13.1271 6.10287 13.1088 6.19482 13.0733 6.28061C13.0377 6.3664 12.9857 6.44435 12.92 6.51001L12 7.43001L12.92 8.35001C13.0476 8.48384 13.1179 8.66216 13.116 8.84704C13.1141 9.03192 13.0402 9.20878 12.91 9.34001V9.39001Z" fill="#9096A0"/>
<path d="M19 8.87006C18.028 8.99249 17.1347 9.46739 16.4896 10.2047C15.8444 10.942 15.4923 11.8904 15.5 12.8701V16.8201L18.92 16.3301C19.6408 16.2282 20.3 15.8677 20.7747 15.3157C21.2494 14.7637 21.5072 14.058 21.5 13.3301V8.56006L19 8.87006Z" fill="#9096A0"/>
</svg>
