<svg width="17" height="20" viewBox="0 0 17 20" fill="none" xmlns="http://www.w3.org/2000/svg">
<path d="M12.94 0.5C14.0009 0.5 15.0183 0.921427 15.7684 1.67157C16.5186 2.42172 16.94 3.43913 16.94 4.5H12.94V0.5Z" fill="#9096A0"/>
<path d="M11.94 6.5C11.6748 6.5 11.4204 6.39464 11.2329 6.20711C11.0454 6.01957 10.94 5.76522 10.94 5.5V0.5H4.94C3.87914 0.5 2.86172 0.921427 2.11158 1.67157C1.36143 2.42172 0.940002 3.43913 0.940002 4.5V15.5C0.940002 16.5609 1.36143 17.5783 2.11158 18.3284C2.86172 19.0786 3.87914 19.5 4.94 19.5H12.94C14.0009 19.5 15.0183 19.0786 15.7684 18.3284C16.5186 17.5783 16.94 16.5609 16.94 15.5V6.5H11.94ZM4.94 4.5H6.94C7.20522 4.5 7.45957 4.60536 7.64711 4.79289C7.83465 4.98043 7.94 5.23478 7.94 5.5C7.94 5.76522 7.83465 6.01957 7.64711 6.20711C7.45957 6.39464 7.20522 6.5 6.94 6.5H4.94C4.67479 6.5 4.42043 6.39464 4.2329 6.20711C4.04536 6.01957 3.94 5.76522 3.94 5.5C3.94 5.23478 4.04536 4.98043 4.2329 4.79289C4.42043 4.60536 4.67479 4.5 4.94 4.5ZM12.94 15.5H4.94C4.67479 15.5 4.42043 15.3946 4.2329 15.2071C4.04536 15.0196 3.94 14.7652 3.94 14.5C3.94 14.2348 4.04536 13.9804 4.2329 13.7929C4.42043 13.6054 4.67479 13.5 4.94 13.5H12.94C13.2052 13.5 13.4596 13.6054 13.6471 13.7929C13.8346 13.9804 13.94 14.2348 13.94 14.5C13.94 14.7652 13.8346 15.0196 13.6471 15.2071C13.4596 15.3946 13.2052 15.5 12.94 15.5ZM12.94 11H4.94C4.67479 11 4.42043 10.8946 4.2329 10.7071C4.04536 10.5196 3.94 10.2652 3.94 10C3.94 9.73478 4.04536 9.48043 4.2329 9.29289C4.42043 9.10536 4.67479 9 4.94 9H12.94C13.2052 9 13.4596 9.10536 13.6471 9.29289C13.8346 9.48043 13.94 9.73478 13.94 10C13.94 10.2652 13.8346 10.5196 13.6471 10.7071C13.4596 10.8946 13.2052 11 12.94 11Z" fill="#9096A0"/>
</svg>
